HIERARCHY
ROOT Hips
{
	OFFSET 0.000000 0.000000 0.000000
	CHANNELS 6 Xposition Yposition Zposition Xrotation Yrotation Zrotation
	JOINT LeftUpLeg_virtual
	{
		OFFSET 0.000000 0.000000 0.000000
		CHANNELS 3 Xrotation Yrotation Zrotation
		JOINT LeftUpLeg
		{
			OFFSET 11.394100 -6.187798 -0.413800
			CHANNELS 3 Xrotation Yrotation Zrotation
			JOINT LeftLeg
			{
				OFFSET 0.430247 -32.302673 3.732800
				CHANNELS 3 Xrotation Yrotation Zrotation
				JOINT LeftFoot
				{
					OFFSET -0.430247 -48.264931 -6.423300
					CHANNELS 3 Xrotation Yrotation Zrotation
					JOINT LeftToeBase
					{
						OFFSET 4.230900 -16.068199 23.438400
						CHANNELS 3 Xrotation Yrotation Zrotation
						JOINT LeftToe_End
						{
							OFFSET 4.510700 0.695400 19.974600
							CHANNELS 3 Xrotation Yrotation Zrotation
							End Site
							{
								OFFSET 0 0 0
							}
						}
					}
				}
			}
		}
	}
	JOINT RightUpLeg_virtual
	{
		OFFSET 0.000000 0.000000 0.000000
		CHANNELS 3 Xrotation Yrotation Zrotation
		JOINT RightUpLeg
		{
			OFFSET -11.333700 -6.187798 -0.413800
			CHANNELS 3 Xrotation Yrotation Zrotation
			JOINT RightLeg
			{
				OFFSET -0.430392 -32.302628 3.733000
				CHANNELS 3 Xrotation Yrotation Zrotation
				JOINT RightFoot
				{
					OFFSET 0.430392 -48.264973 -6.423500
					CHANNELS 3 Xrotation Yrotation Zrotation
					JOINT RightToeBase
					{
						OFFSET -4.230900 -16.068199 23.438400
						CHANNELS 3 Xrotation Yrotation Zrotation
						JOINT RightToe_End
						{
							OFFSET -4.510700 0.695400 19.974600
							CHANNELS 3 Xrotation Yrotation Zrotation
							End Site
							{
								OFFSET 0 0 0
							}
						}
					}
				}
			}
		}
	}
	JOINT Spine_virtual
	{
		OFFSET 0.000000 0.000000 0.000000
		CHANNELS 3 Xrotation Yrotation Zrotation
		JOINT Spine
		{
			OFFSET -0.002400 12.777504 0.315300
			CHANNELS 3 Xrotation Yrotation Zrotation
			JOINT Spine1
			{
				OFFSET -0.002067 5.816869 0.032633
				CHANNELS 3 Xrotation Yrotation Zrotation
				JOINT Spine1_split
				{
					OFFSET -0.002067 5.816869 0.032633
					CHANNELS 3 Xrotation Yrotation Zrotation
					JOINT Spine2
					{
						OFFSET -0.002067 5.816869 0.032633
						CHANNELS 3 Xrotation Yrotation Zrotation
						JOINT Neck_virtual
						{
							OFFSET 0.000000 0.000000 0.000000
							CHANNELS 3 Xrotation Yrotation Zrotation
							JOINT Neck
							{
								OFFSET -0.003700 21.199493 -0.826900
								CHANNELS 3 Xrotation Yrotation Zrotation
								JOINT Head
								{
									OFFSET 0.000000 20.442200 4.834800
									CHANNELS 3 Xrotation Yrotation Zrotation
									JOINT HeadTop_End
									{
										OFFSET 0.000000 34.668396 4.968400
										CHANNELS 3 Xrotation Yrotation Zrotation
										End Site
										{
											OFFSET 0 0 0
										}
									}
								}
							}
						}
						JOINT LeftShoulder_virtual
						{
							OFFSET 0.000000 0.000000 0.000000
							CHANNELS 3 Xrotation Yrotation Zrotation
							JOINT LeftShoulder
							{
								OFFSET 3.288150 8.794197 -1.372250
								CHANNELS 3 Xrotation Yrotation Zrotation
								JOINT LeftShoulder_split
								{
									OFFSET 3.288150 8.794197 -1.372250
									CHANNELS 3 Xrotation Yrotation Zrotation
									JOINT LeftArm
									{
										OFFSET 11.953299 -2.279007 -0.146200
										CHANNELS 3 Xrotation Yrotation Zrotation
										JOINT LeftForeArm
										{
											OFFSET 18.448900 0.000000 0.000000
											CHANNELS 3 Xrotation Yrotation Zrotation
											JOINT LeftHand
											{
												OFFSET 29.527798 0.000000 0.000000
												CHANNELS 3 Xrotation Yrotation Zrotation
												End Site
												{
													OFFSET 0 0 0
												}
											}
										}
									}
								}
							}
						}
						JOINT RightShoulder_virtual
						{
							OFFSET 0.000000 0.000000 0.000000
							CHANNELS 3 Xrotation Yrotation Zrotation
							JOINT RightShoulder
							{
								OFFSET -3.249400 8.794197 -1.372250
								CHANNELS 3 Xrotation Yrotation Zrotation
								JOINT RightShoulder_split
								{
									OFFSET -3.249400 8.794197 -1.372250
									CHANNELS 3 Xrotation Yrotation Zrotation
									JOINT RightArm
									{
										OFFSET -11.953299 -2.279007 -0.146200
										CHANNELS 3 Xrotation Yrotation Zrotation
										JOINT RightForeArm
										{
											OFFSET -18.448900 0.000000 0.000000
											CHANNELS 3 Xrotation Yrotation Zrotation
											JOINT RightHand
											{
												OFFSET -29.527802 0.000000 0.000000
												CHANNELS 3 Xrotation Yrotation Zrotation
												End Site
												{
													OFFSET 0 0 0
												}
											}
										}
									}
								}
							}
						}
					}
				}
			}
		}
	}
}
MOTION
Frames: 11
Frame Time: 0.03333333
-2.787857 96.949486 -2.340176 0.000000 0.000000 0.000000 1.780180 -44.830517 4.870537 -23.088543 7.517461 11.164445 12.875006 -8.019310 3.944231 7.537318 -2.947214 -17.522709 -0.682242 1.033306 1.622972 0.000000 0.000000 0.000000 1.780180 -44.830517 4.870537 -13.468675 -5.802253 -16.252643 24.395016 -11.803731 -8.045397 -8.334376 -5.148986 21.755705 -3.009359 -0.947813 -1.024251 0.000000 0.000000 0.000000 1.780180 -44.830517 4.870537 6.692058 0.759297 -0.908647 -0.557033 1.560411 -1.610233 0.000000 0.000000 0.000000 0.000000 0.000000 0.000000 -0.534578 1.560481 -1.609754 -19.005368 -1.508389 20.421620 -4.556861 11.720421 -16.000785 0.000000 0.000000 0.000000 -0.534578 1.560481 -1.609754 -8.631162 -5.317967 -15.297518 0.000000 0.000000 0.000000 0.075341 -2.626982 -31.066825 42.317485 -37.063345 15.465970 0.000000 0.000000 0.000000 -0.534578 1.560481 -1.609754 -0.620554 15.164821 -23.726494 0.000000 0.000000 0.000000 -69.097062 11.570651 13.062487 -66.678390 31.186248 49.367484 0.000000 0.000000 0.000000 
-1.659834 96.538193 -2.469799 0.000000 0.000000 0.000000 1.966240 -46.729791 5.322701 -24.524131 7.565663 11.685273 15.168390 -6.604805 3.198563 6.731408 -2.793488 -17.253488 -0.321644 1.048718 0.978174 0.000000 0.000000 0.000000 1.966240 -46.729791 5.322701 -15.917809 -4.887534 -16.627747 26.016273 -10.270004 -8.913954 -7.991460 -4.868792 22.128730 -2.157550 -0.960792 -1.044612 0.000000 0.000000 0.000000 1.966240 -46.729791 5.322701 6.986034 0.785534 -0.779132 0.030503 1.602060 -1.410632 0.000000 0.000000 0.000000 0.000000 0.000000 0.000000 0.052967 1.602123 -1.410150 -19.678868 2.847925 20.261707 -2.884410 15.081104 -14.720876 0.000000 0.000000 0.000000 0.052967 1.602123 -1.410150 -8.451880 -5.621939 -14.376198 0.000000 0.000000 0.000000 -0.075745 -1.533864 -32.297936 42.235390 -38.238599 16.524094 0.000000 0.000000 0.000000 0.052967 1.602123 -1.410150 -1.838002 15.913859 -17.234360 0.000000 0.000000 0.000000 -61.208624 13.459266 13.486398 -68.704477 40.806538 53.529869 0.000000 0.000000 0.000000 
-0.565475 96.065109 -2.598053 0.000000 0.000000 0.000000 2.203843 -48.571862 5.806028 -26.249698 7.538969 12.218194 17.812303 -5.234666 2.489196 6.072818 -2.740384 -16.742105 -0.276117 1.054354 0.922571 0.000000 0.000000 0.000000 2.203843 -48.571862 5.806028 -18.511039 -3.999727 -17.290428 27.936859 -8.592638 -9.155897 -7.804879 -4.499138 22.208988 -1.907530 -0.964702 -1.079011 0.000000 0.000000 0.000000 2.203843 -48.571862 5.806028 7.352638 0.812978 -0.677146 0.763979 1.639952 -1.283004 0.000000 0.000000 0.000000 0.000000 0.000000 0.000000 0.786438 1.639997 -1.282523 -20.503106 6.813968 19.831232 -2.096544 18.094453 -13.398015 0.000000 0.000000 0.000000 0.786438 1.639997 -1.282523 -8.246967 -6.260966 -13.419145 0.000000 0.000000 0.000000 -0.679680 -0.986886 -33.318694 40.457403 -38.710060 16.172995 0.000000 0.000000 0.000000 0.786438 1.639997 -1.282523 -3.097944 16.714830 -10.628246 0.000000 0.000000 0.000000 -52.210410 15.138925 12.803053 -72.258497 47.887634 57.121302 0.000000 0.000000 0.000000 
0.465895 95.562592 -2.739731 0.000000 0.000000 0.000000 2.497308 -50.287391 6.324852 -27.930867 7.545930 12.662550 20.353906 -4.025812 1.906653 5.288659 -2.631652 -16.065974 -0.268258 1.060753 0.939505 0.000000 0.000000 0.000000 2.497308 -50.287391 6.324852 -21.201618 -3.282955 -18.201877 30.000790 -6.831551 -8.899456 -7.722396 -3.998287 22.052994 -1.079666 -0.976949 -0.617565 0.000000 0.000000 0.000000 2.497308 -50.287391 6.324852 7.742961 0.857257 -0.621426 1.545309 1.715449 -1.217392 0.000000 0.000000 0.000000 0.000000 0.000000 0.000000 1.567757 1.715550 -1.216920 -21.276051 10.292432 19.285469 -1.774601 20.723386 -12.432693 0.000000 0.000000 0.000000 1.567757 1.715550 -1.216920 -8.046779 -7.136054 -12.600209 0.000000 0.000000 0.000000 -1.873244 -1.038006 -33.862582 37.901399 -38.184572 14.869515 0.000000 0.000000 0.000000 1.567757 1.715550 -1.216920 -4.357184 17.398585 -4.255187 0.000000 0.000000 0.000000 -42.601813 16.559327 11.296990 -74.448775 51.725917 57.873149 0.000000 0.000000 0.000000 
1.357702 94.967049 -2.892403 0.000000 0.000000 0.000000 2.884130 -51.720812 6.867599 -29.841780 7.528129 13.138414 23.099032 -3.102330 1.403387 4.320403 -2.517726 -15.327286 -0.259921 1.068012 0.957500 0.000000 0.000000 0.000000 2.884130 -51.720812 6.867599 -23.919471 -2.600189 -18.894393 32.234893 -5.384594 -8.772849 -7.780920 -3.541559 22.005975 -0.372750 -0.987605 -0.354811 0.000000 0.000000 0.000000 2.884130 -51.720812 6.867599 8.081867 0.857777 -0.594881 2.223407 1.704142 -1.199200 0.000000 0.000000 0.000000 0.000000 0.000000 0.000000 2.245872 1.704218 -1.198720 -21.905458 13.314352 18.866734 -0.881477 22.920925 -11.838628 0.000000 0.000000 0.000000 2.245872 1.704218 -1.198720 -7.843774 -7.966333 -11.756799 0.000000 0.000000 0.000000 -3.612935 -1.560440 -34.142330 35.196381 -36.782707 13.022764 0.000000 0.000000 0.000000 2.245872 1.704218 -1.198720 -5.656803 18.013323 2.007448 0.000000 0.000000 0.000000 -33.568355 17.849463 9.607802 -72.924755 55.314488 53.804200 0.000000 0.000000 0.000000 
2.088491 94.283005 -3.027679 0.000000 0.000000 0.000000 3.225243 -52.832012 7.244777 -31.900446 7.337023 13.793546 25.983964 -2.507164 0.899994 3.469403 -2.429675 -14.892563 -0.251244 1.075746 0.976496 0.000000 0.000000 0.000000 3.225243 -52.832012 7.244777 -26.440619 -1.946662 -19.374457 34.547776 -4.334612 -8.648416 -7.968561 -3.163036 21.963810 -0.214593 -0.989688 -0.617601 0.000000 0.000000 0.000000 3.225243 -52.832012 7.244777 8.359282 0.820979 -0.571584 2.778442 1.612278 -1.199973 0.000000 0.000000 0.000000 0.000000 0.000000 0.000000 2.800891 1.612376 -1.199495 -22.204236 15.732861 18.566309 0.383177 24.599824 -11.714794 0.000000 0.000000 0.000000 2.800891 1.612376 -1.199495 -7.645245 -8.632769 -10.901456 0.000000 0.000000 0.000000 -5.617773 -2.200388 -34.209238 32.381497 -35.183746 10.853045 0.000000 0.000000 0.000000 2.800891 1.612376 -1.199495 -6.985795 18.396614 8.015037 0.000000 0.000000 0.000000 -25.184499 18.568890 8.157963 -65.263755 61.460412 42.717540 0.000000 0.000000 0.000000 
2.681425 93.632614 -3.101460 0.000000 0.000000 0.000000 3.611117 -53.808497 7.680461 -33.722908 7.149258 14.423363 28.540726 -2.030194 0.367884 2.708861 -2.358965 -14.518674 -0.241979 1.083947 0.996286 0.000000 0.000000 0.000000 3.611117 -53.808497 7.680461 -28.726806 -1.381521 -19.857639 36.627784 -3.400506 -8.503982 -8.168523 -2.779763 21.912987 -0.080766 -0.991682 -0.828274 0.000000 0.000000 0.000000 3.611117 -53.808497 7.680461 8.597285 0.815679 -0.581013 3.255244 1.585384 -1.255229 0.000000 0.000000 0.000000 0.000000 0.000000 0.000000 3.277699 1.585517 -1.254765 -22.126504 17.658679 17.953162 1.084194 25.737859 -11.663859 0.000000 0.000000 0.000000 3.277699 1.585517 -1.254765 -7.503297 -9.227965 -10.396444 0.000000 0.000000 0.000000 -7.610439 -2.682964 -33.789701 29.430971 -33.992718 8.635026 0.000000 0.000000 0.000000 3.277699 1.585517 -1.254765 -8.052889 18.038362 12.691957 0.000000 0.000000 0.000000 -18.399360 18.795371 6.802706 -54.584198 62.948478 29.891807 0.000000 0.000000 0.000000 
3.070025 93.043945 -3.105103 0.000000 0.000000 0.000000 4.035090 -54.514223 8.255009 -35.236116 7.013663 14.924501 30.662317 -1.748254 -0.221281 2.048503 -2.304817 -14.182954 -0.232447 1.092243 1.016898 0.000000 0.000000 0.000000 4.035090 -54.514223 8.255009 -30.694139 -0.910101 -20.363516 38.480104 -2.724731 -8.467053 -8.457191 -2.424041 21.939056 -0.012203 -0.992555 -0.868943 0.000000 0.000000 0.000000 4.035090 -54.514223 8.255009 8.828338 0.806182 -0.633992 3.718438 1.549873 -1.393072 0.000000 0.000000 0.000000 0.000000 0.000000 0.000000 3.740889 1.549932 -1.392584 -22.058542 19.268090 17.083772 1.369251 26.511045 -11.441030 0.000000 0.000000 0.000000 3.740889 1.549932 -1.392584 -7.386781 -9.832715 -10.042064 0.000000 0.000000 0.000000 -9.608506 -2.869064 -33.294751 26.547934 -33.193323 6.703365 0.000000 0.000000 0.000000 3.740889 1.549932 -1.392584 -8.639350 17.153431 15.531106 0.000000 0.000000 0.000000 -13.521052 18.441253 6.910310 -40.230398 63.989420 14.132736 0.000000 0.000000 0.000000 
3.268479 92.428307 -3.058403 0.000000 0.000000 0.000000 4.188829 -54.892052 8.618118 -36.562395 6.742627 15.284524 32.742045 -1.623309 -0.699758 1.436827 -2.265207 -14.030657 -0.222644 1.100814 1.038095 0.000000 0.000000 0.000000 4.188829 -54.892052 8.618118 -32.295597 -0.518656 -20.848772 40.375109 -2.411518 -8.531898 -8.935732 -2.126908 22.076843 0.023008 -0.993133 -0.857590 0.000000 0.000000 0.000000 4.188829 -54.892052 8.618118 9.037866 0.738135 -0.697651 4.137790 1.395195 -1.552603 0.000000 0.000000 0.000000 0.000000 0.000000 0.000000 4.160245 1.395313 -1.552134 -21.917385 20.657315 16.272571 1.681930 27.092043 -11.208210 0.000000 0.000000 0.000000 4.160245 1.395313 -1.552134 -7.318231 -10.260851 -9.889100 0.000000 0.000000 0.000000 -11.544635 -2.680782 -32.788736 23.982814 -32.859043 5.369293 0.000000 0.000000 0.000000 4.160245 1.395313 -1.552134 -8.617153 16.244799 15.900378 0.000000 0.000000 0.000000 -11.562890 17.093464 9.157980 -24.973265 64.166485 -1.536159 0.000000 0.000000 0.000000 
3.358717 91.848526 -2.958591 0.000000 0.000000 0.000000 4.037403 -55.111403 8.688046 -37.573636 6.432936 15.468452 34.592886 -2.584531 -1.113574 0.934561 -1.177997 -13.825703 -0.212601 1.109821 1.059863 0.000000 0.000000 0.000000 4.037403 -55.111403 8.688046 -33.488923 -0.269593 -21.350160 42.104780 -2.204827 -8.587275 -9.475717 -1.851287 22.237691 0.053497 -0.993713 -0.850016 0.000000 0.000000 0.000000 4.037403 -55.111403 8.688046 9.207269 0.606557 -0.769887 4.475388 1.115475 -1.721066 0.000000 0.000000 0.000000 0.000000 0.000000 0.000000 4.497855 1.115574 -1.720584 -21.422069 21.939322 15.584378 1.836976 27.638038 -10.984768 0.000000 0.000000 0.000000 4.497855 1.115574 -1.720584 -7.233361 -10.514083 -9.561538 0.000000 0.000000 0.000000 -13.398746 -1.925797 -32.606558 21.614342 -33.030515 4.504184 0.000000 0.000000 0.000000 4.497855 1.115574 -1.720584 -8.490643 15.483038 15.649866 0.000000 0.000000 0.000000 -11.243385 15.233916 11.240572 -16.407038 62.993974 -9.612990 0.000000 0.000000 0.000000 
3.368921 91.330223 -2.827137 0.000000 0.000000 0.000000 3.852947 -55.332940 8.715704 -38.366091 6.212341 15.750112 36.220152 -2.520972 -1.498757 0.449216 -1.234147 -13.664694 -0.202341 1.118769 1.082021 0.000000 0.000000 0.000000 3.852947 -55.332940 8.715704 -34.499258 -0.119131 -21.860266 43.638420 -1.940925 -8.613489 -10.017919 -1.562577 22.353066 0.086549 -0.994104 -0.844641 0.000000 0.000000 0.000000 3.852947 -55.332940 8.715704 9.363843 0.454148 -0.867044 4.786493 0.795135 -1.932437 0.000000 0.000000 0.000000 0.000000 0.000000 0.000000 4.808977 0.795183 -1.931943 -21.046029 23.080888 14.972772 1.885082 28.122189 -10.702800 0.000000 0.000000 0.000000 4.808977 0.795183 -1.931943 -7.180864 -10.661766 -9.429857 0.000000 0.000000 0.000000 -15.028441 -0.723900 -32.230047 19.162903 -33.902211 3.747554 0.000000 0.000000 0.000000 4.808977 0.795183 -1.931943 -8.280230 14.857343 14.941792 0.000000 0.000000 0.000000 -12.156959 12.869934 12.857508 -12.715200 62.638797 -12.056273 0.000000 0.000000 0.000000 
